<?xml version="1.0" encoding="utf-8"?>
<!-- Generator: Adobe Illustrator 24.2.3, SVG Export Plug-In . SVG Version: 6.00 Build 0)  -->
<svg version="1.1" id="Layer_1" xmlns="http://www.w3.org/2000/svg" xmlns:xlink="http://www.w3.org/1999/xlink" x="0px" y="0px"
	 viewBox="0 0 612 514.8" style="enable-background:new 0 0 612 514.8;" xml:space="preserve">
<style type="text/css">
	.st0{fill-rule:evenodd;clip-rule:evenodd;fill:#FBF9F9;}
	.st1{fill-rule:evenodd;clip-rule:evenodd;fill:#67BDEA;}
	
		.st2{fill-rule:evenodd;clip-rule:evenodd;fill:none;stroke:#6D6E71;stroke-width:1.5755;stroke-linecap:round;stroke-linejoin:round;stroke-miterlimit:2.6131;}
	.st3{fill-rule:evenodd;clip-rule:evenodd;fill:none;stroke:#6D6E71;stroke-width:1.7385;stroke-miterlimit:2.6131;}
</style>
<rect class="st0" width="612" height="514.8"/>
<g>
	<path class="st1" d="M270.08,75.94c7.57-12.09,13.24-19.37,17.95-25.18c-16.16-0.85-31.03,4.76-47.95,18.57l-1.02,13.25l-3.93-9.75
		c-6.74,6.89-13.33,14.99-19.76,24.41l0.24,12.71l-3.87-7.98c-7.27,12.06-6.44,23.27-0.83,28.38l-0.16,0.27
		c-5.78,9.96-11.25,20.45-16.31,31.27c1.54-1.94,4.4-4.73,7.9-5.09c1.99-4.59,7.15-14.69,11.9-23.82l0.25-0.46
		c7.67,2.83,19.98-2.2,33.05-21.26l-9.37-2.86l12.01-1.39c6.29-9.58,12.2-18.52,17.48-27.63l-7.21-2.23L270.08,75.94z"/>
	<g>
		<path class="st2" d="M264.41,75.94c7.57-12.09,13.24-19.37,17.95-25.18c-16.16-0.85-31.03,4.76-47.95,18.57l-1.02,13.25
			l-3.93-9.75c-6.74,6.89-13.33,14.99-19.76,24.41l0.24,12.71l-3.87-7.98c-7.27,12.06-6.44,23.27-0.83,28.38
			c18.06-30.98,39.33-56.77,62-71.22c-20.49,16.68-41.35,41.25-58.71,73.29c7.65,3.06,20.1-1.85,33.33-21.15l-9.37-2.86l12.01-1.39
			c6.29-9.58,12.2-18.52,17.48-27.63l-7.21-2.23L264.41,75.94z"/>
		<path class="st3" d="M196.67,156.81c19.17-44.15,45.16-76.99,70.57-97.68c-30,19.14-57.58,58.13-78.46,102.76
			C190.31,159.96,193.17,157.17,196.67,156.81z"/>
	</g>
</g>
</svg>
