<?xml version="1.0" standalone="no"?>
<!DOCTYPE svg PUBLIC "-//W3C//DTD SVG 20010904//EN"
 "http://www.w3.org/TR/2001/REC-SVG-20010904/DTD/svg10.dtd">
<svg version="1.0" xmlns="http://www.w3.org/2000/svg"
 width="4000.000000pt" height="4000.000000pt" viewBox="0 0 4000.000000 4000.000000"
 preserveAspectRatio="xMidYMid meet">

<g transform="translate(0.000000,4000.000000) scale(0.100000,-0.100000)"
fill="#000000" stroke="none">
<path d="M25762 30964 c-140 -37 -352 -143 -457 -228 -22 -18 -67 -51 -100
-73 -66 -44 -371 -351 -450 -453 -27 -35 -76 -91 -108 -125 -31 -34 -90 -103
-130 -153 -132 -166 -310 -386 -383 -472 -39 -47 -123 -151 -185 -231 -125
-159 -329 -408 -439 -534 -39 -44 -102 -125 -142 -180 -40 -55 -118 -154 -173
-220 -55 -66 -125 -152 -155 -190 -30 -39 -97 -122 -150 -186 -52 -63 -131
-162 -175 -218 -44 -57 -116 -149 -160 -205 -44 -56 -118 -151 -165 -211 -47
-60 -106 -132 -131 -160 -26 -27 -74 -88 -108 -135 -34 -47 -85 -115 -114
-151 -29 -37 -101 -131 -162 -209 -60 -79 -132 -171 -158 -204 -68 -86 -182
-241 -252 -343 -33 -48 -84 -121 -114 -162 -30 -42 -72 -110 -94 -151 -22 -41
-45 -82 -52 -90 -7 -8 -23 -35 -35 -60 -12 -25 -39 -67 -59 -95 -21 -27 -57
-84 -82 -125 -44 -73 -358 -700 -400 -797 -26 -60 -56 -93 -86 -93 -47 0 -76
96 -54 175 6 22 25 103 41 180 16 77 40 176 53 220 14 44 28 105 31 135 11 90
26 161 51 240 12 41 26 98 29 125 7 45 30 144 95 405 12 47 31 123 42 170 11
47 34 128 50 181 34 108 35 144 4 144 -14 0 -44 -36 -108 -130 -48 -71 -123
-179 -167 -240 -128 -178 -323 -465 -434 -638 -17 -26 -67 -99 -111 -162 -127
-181 -253 -376 -290 -446 -13 -26 -47 -77 -76 -114 -28 -37 -77 -111 -108
-164 -32 -53 -106 -169 -167 -259 -60 -90 -129 -196 -153 -235 -46 -74 -118
-188 -258 -407 -44 -69 -104 -165 -133 -215 -30 -49 -75 -121 -100 -160 -84
-126 -227 -359 -259 -424 -18 -35 -60 -105 -94 -156 -34 -51 -80 -124 -101
-162 -21 -37 -81 -136 -132 -219 -51 -83 -112 -186 -135 -230 -23 -43 -56
-101 -74 -129 -34 -54 -111 -186 -207 -355 -101 -177 -169 -292 -219 -370 -26
-41 -74 -127 -107 -190 -74 -145 -157 -296 -209 -380 -37 -61 -59 -100 -203
-370 -31 -58 -66 -121 -79 -140 -41 -63 -112 -194 -137 -254 -14 -32 -47 -97
-73 -145 -27 -47 -115 -214 -196 -371 -81 -157 -160 -305 -176 -330 -15 -25
-69 -135 -119 -245 -51 -110 -96 -204 -100 -210 -14 -17 -217 -427 -244 -492
-14 -35 -75 -162 -135 -283 -60 -121 -117 -244 -127 -272 -9 -29 -45 -110 -80
-179 -35 -70 -64 -131 -64 -137 0 -10 -25 -68 -85 -197 -20 -44 -50 -111 -65
-150 -15 -38 -60 -142 -100 -230 -39 -88 -81 -183 -91 -212 -30 -78 -53 -103
-98 -103 -61 0 -111 52 -111 117 0 15 -10 60 -20 98 -11 39 -36 142 -54 230
-35 166 -60 260 -75 284 -14 22 -40 5 -57 -35 -9 -20 -29 -91 -45 -157 -16
-66 -34 -128 -40 -138 -5 -10 -18 -62 -29 -116 -11 -54 -29 -125 -40 -159 -11
-33 -27 -101 -35 -151 -8 -49 -24 -119 -35 -154 -11 -35 -29 -116 -40 -179
-11 -63 -26 -138 -34 -165 -8 -28 -25 -104 -36 -170 -12 -66 -30 -152 -41
-191 -10 -38 -26 -121 -34 -183 -8 -61 -26 -162 -40 -224 -13 -62 -31 -160
-39 -218 -8 -58 -24 -130 -35 -160 -11 -30 -25 -99 -31 -154 -11 -109 -24
-182 -45 -260 -8 -27 -19 -99 -24 -160 -6 -60 -22 -160 -36 -222 -13 -61 -34
-178 -45 -260 -11 -81 -28 -186 -39 -233 -11 -47 -24 -137 -30 -200 -6 -63
-22 -178 -36 -255 -14 -77 -36 -239 -49 -360 -14 -121 -29 -245 -35 -275 -5
-30 -17 -147 -26 -260 -16 -218 -26 -329 -50 -557 -24 -229 -19 -304 19 -290
19 8 9 -16 147 347 114 302 287 721 319 775 10 17 27 57 38 90 18 55 244 537
262 560 5 6 17 33 28 60 21 53 302 620 369 745 36 67 117 218 374 702 96 180
211 384 294 523 24 39 55 95 70 125 15 30 40 73 55 95 15 22 65 108 111 190
84 153 279 485 342 585 19 30 65 107 102 170 38 63 94 156 125 205 31 50 72
116 89 149 18 32 54 91 79 131 26 40 70 110 97 155 28 45 77 123 111 173 34
51 69 108 78 127 10 19 41 71 70 115 141 214 227 346 267 413 24 40 82 130
128 200 45 70 130 201 188 292 190 299 317 489 411 617 50 69 92 129 92 134 0
9 307 468 364 546 17 22 52 74 78 115 26 40 74 111 107 158 34 47 83 117 109
155 60 86 170 241 374 530 86 121 165 238 176 260 22 44 90 141 222 316 47 63
119 161 159 219 41 58 96 130 121 160 26 30 77 100 115 155 37 55 98 141 135
190 36 50 106 146 155 215 111 157 238 324 281 370 17 19 57 74 87 122 31 47
61 89 66 93 6 3 38 45 71 93 33 48 108 146 165 217 57 72 121 155 142 185 56
81 189 259 227 305 18 22 64 83 101 135 38 52 112 149 164 215 53 66 141 179
196 251 55 72 130 169 167 215 37 46 127 161 200 255 73 95 167 215 208 268
41 53 95 123 120 156 25 32 92 115 150 183 58 69 120 144 137 168 18 24 60 76
94 114 34 39 76 92 94 119 19 27 63 83 99 125 35 42 126 150 200 241 75 91
159 192 187 225 28 33 115 137 194 230 79 94 167 199 196 234 30 35 68 84 86
109 18 25 52 66 76 91 42 44 268 305 411 475 37 44 123 142 191 216 118 130
251 283 364 418 75 90 428 458 487 508 71 60 89 67 109 48 10 -10 13 -24 9
-38 -14 -49 -177 -272 -397 -540 -31 -39 -96 -123 -144 -186 -48 -63 -122
-155 -164 -205 -77 -90 -137 -166 -271 -345 -40 -52 -106 -135 -148 -185 -43
-49 -104 -128 -137 -175 -34 -47 -94 -124 -134 -173 -41 -48 -99 -119 -129
-159 -30 -39 -109 -139 -175 -222 -67 -83 -141 -178 -165 -211 -25 -33 -89
-115 -142 -182 -53 -67 -116 -151 -139 -185 -24 -35 -77 -103 -119 -153 -42
-49 -90 -110 -106 -135 -17 -25 -80 -106 -140 -180 -60 -74 -125 -157 -144
-185 -18 -27 -59 -81 -90 -120 -31 -38 -73 -95 -94 -125 -22 -30 -80 -107
-131 -170 -50 -63 -106 -137 -124 -163 -18 -27 -58 -76 -88 -110 -31 -34 -72
-85 -92 -113 -20 -28 -55 -75 -78 -105 -23 -30 -104 -137 -180 -239 -77 -102
-168 -223 -204 -269 -84 -109 -189 -252 -236 -321 -20 -30 -61 -84 -90 -119
-30 -34 -77 -97 -105 -140 -81 -119 -157 -222 -198 -266 -20 -22 -75 -92 -120
-155 -46 -63 -127 -173 -180 -245 -53 -71 -118 -161 -146 -199 -27 -38 -68
-94 -92 -125 -23 -31 -64 -85 -90 -121 -25 -36 -97 -132 -158 -215 -61 -82
-124 -170 -140 -195 -15 -25 -56 -81 -90 -125 -34 -44 -71 -98 -82 -120 -11
-22 -41 -64 -66 -94 -26 -29 -51 -61 -56 -71 -12 -22 -197 -284 -289 -410 -34
-47 -89 -125 -123 -175 -34 -49 -89 -126 -123 -170 -34 -44 -88 -121 -120
-170 -32 -50 -81 -121 -109 -159 -28 -38 -119 -168 -203 -290 -208 -302 -273
-399 -496 -736 -54 -81 -108 -163 -200 -297 -168 -248 -471 -705 -551 -833
-25 -41 -64 -100 -85 -130 -22 -30 -81 -122 -131 -205 -51 -82 -125 -199 -165
-260 -40 -60 -96 -148 -125 -195 -30 -47 -81 -128 -116 -180 -34 -52 -98 -156
-142 -230 -44 -74 -97 -162 -118 -195 -158 -254 -248 -402 -289 -476 -23 -42
-51 -89 -62 -105 -37 -53 -146 -237 -239 -404 -50 -91 -133 -237 -184 -325
-52 -88 -112 -194 -135 -235 -23 -41 -55 -97 -72 -125 -59 -97 -227 -407 -413
-760 -35 -66 -84 -156 -108 -200 -60 -106 -427 -835 -527 -1045 -43 -91 -95
-194 -116 -231 -22 -36 -50 -92 -63 -125 -13 -32 -50 -115 -81 -184 -31 -69
-68 -152 -82 -185 -13 -33 -42 -98 -63 -145 -47 -105 -148 -334 -184 -417 -15
-35 -35 -86 -45 -115 -10 -29 -43 -107 -74 -173 -30 -66 -72 -158 -92 -205
-20 -47 -50 -114 -67 -150 -16 -36 -38 -90 -48 -120 -17 -51 -43 -112 -105
-246 -13 -27 -33 -75 -45 -105 -12 -29 -25 -58 -29 -64 -4 -5 -19 -39 -34 -75
-14 -36 -66 -148 -115 -250 -49 -102 -95 -203 -102 -225 -7 -22 -27 -69 -45
-105 -18 -36 -38 -83 -45 -105 -7 -22 -60 -146 -117 -275 -58 -129 -113 -255
-123 -280 -10 -25 -42 -97 -72 -160 -42 -87 -62 -118 -82 -128 -14 -6 -26 -15
-26 -20 0 -16 34 -39 65 -45 17 -3 84 -17 150 -31 358 -77 982 -146 1314 -146
159 0 546 28 715 51 661 90 1443 319 1981 578 347 167 721 408 985 635 36 31
69 55 73 53 5 -1 23 -36 41 -78 41 -95 118 -209 197 -294 135 -144 347 -245
515 -245 59 0 81 5 131 30 122 61 193 144 390 460 161 258 221 346 334 492
177 229 322 365 481 452 231 125 464 181 662 157 113 -13 181 -37 266 -92 122
-79 201 -180 335 -429 121 -227 173 -308 248 -387 112 -118 214 -153 343 -118
119 32 247 132 468 365 250 263 319 308 491 317 105 6 178 -7 261 -46 130 -62
212 -153 360 -401 94 -158 152 -225 231 -268 87 -46 172 -59 294 -43 139 17
241 45 333 92 94 48 120 65 331 219 244 179 394 257 565 295 157 35 514 30
820 -10 455 -61 896 -82 1225 -61 419 28 746 87 1125 206 315 99 574 211 779
337 308 190 811 571 811 613 0 37 -31 29 -93 -23 -199 -169 -484 -376 -762
-552 -281 -178 -863 -384 -1300 -459 -525 -90 -973 -97 -1610 -26 -374 42
-465 51 -625 56 -264 10 -453 -27 -651 -127 -104 -52 -129 -68 -327 -212 -281
-205 -392 -260 -580 -287 -121 -18 -227 -10 -293 23 -78 38 -126 93 -227 258
-150 247 -215 323 -337 397 -93 56 -167 75 -295 75 -195 -1 -279 -43 -465
-234 -300 -309 -377 -376 -490 -430 -119 -57 -228 -33 -334 74 -68 68 -117
143 -236 362 -176 324 -259 422 -431 509 -197 100 -505 85 -789 -39 -184 -80
-302 -162 -435 -302 -148 -155 -308 -368 -460 -612 -236 -379 -312 -478 -413
-539 -104 -62 -206 -52 -393 38 -120 58 -222 147 -303 265 -55 79 -131 230
-131 260 0 10 58 74 128 144 358 351 553 659 695 1097 72 220 82 282 82 489 0
161 -2 188 -24 255 -44 141 -95 211 -187 256 -76 37 -170 32 -264 -16 -83 -42
-202 -160 -259 -256 -123 -208 -242 -555 -303 -879 -20 -106 -22 -152 -22
-385 0 -278 9 -364 56 -574 l22 -99 -55 -49 c-77 -70 -272 -220 -397 -306
-589 -405 -1351 -699 -2272 -876 -694 -133 -1385 -127 -2185 19 -239 44 -247
46 -242 65 8 31 252 384 359 522 32 40 97 124 145 185 142 182 223 281 313
382 47 53 116 132 154 176 84 97 416 428 483 480 26 22 82 71 123 111 41 39
127 108 190 152 63 45 141 100 174 123 233 168 610 368 843 449 45 16 108 40
140 53 93 41 264 107 275 107 13 0 259 103 479 201 86 38 160 69 164 69 10 0
281 146 395 213 150 87 385 262 597 444 73 62 152 127 176 143 24 16 63 54 85
84 23 30 63 73 90 95 27 23 116 114 198 203 82 89 165 176 184 193 60 53 90
87 117 133 l27 45 -26 22 c-22 19 -46 24 -154 34 -296 26 -489 41 -544 41 -48
0 -64 4 -89 26 -59 49 -37 109 63 176 34 22 75 54 92 70 17 16 59 48 92 71 53
37 189 139 451 340 109 84 215 163 317 235 49 34 175 127 279 207 277 212 387
295 506 382 58 43 138 104 178 136 39 32 107 84 150 115 43 31 132 98 197 148
66 50 148 108 184 129 73 44 112 71 226 163 143 113 442 335 604 447 87 61
218 156 292 211 73 56 161 121 195 145 34 24 104 76 155 115 51 39 138 102
194 140 156 107 304 223 304 240 0 26 -31 28 -114 6 -45 -11 -117 -24 -161
-28 -44 -3 -172 -21 -285 -40 -113 -19 -243 -38 -290 -43 -47 -5 -121 -21
-165 -35 -226 -73 -319 17 -175 169 21 22 72 86 114 142 42 56 81 105 86 108
13 8 155 193 252 327 45 62 118 158 163 213 45 55 117 149 161 209 43 60 98
132 121 160 56 67 98 122 226 296 59 80 135 183 170 230 35 47 95 128 132 180
38 52 99 129 136 170 37 41 91 111 121 156 29 44 88 125 130 180 42 54 112
146 154 204 43 58 114 155 159 215 44 61 106 145 136 188 29 43 87 122 128
175 40 53 127 171 192 262 65 91 148 203 184 250 36 47 75 101 87 120 12 19
38 55 58 80 21 25 44 59 53 75 8 17 35 58 59 90 24 33 80 109 124 169 43 59
93 127 111 150 17 22 78 109 134 191 57 83 128 184 159 225 56 75 176 244 233
330 17 25 49 69 71 99 23 30 70 101 106 157 36 57 107 163 158 236 112 160
279 427 284 454 2 13 -4 20 -19 22 -17 3 -53 -25 -144 -110 -66 -62 -145 -133
-174 -158 -29 -25 -223 -212 -431 -417 -209 -204 -395 -385 -415 -402 -65 -56
-129 -48 -129 15 0 31 97 169 290 414 81 102 177 228 213 280 37 52 115 164
174 249 59 85 123 175 141 200 56 78 112 164 112 172 0 5 24 43 53 87 28 43
77 119 107 170 30 51 92 149 138 218 45 70 82 131 82 136 0 5 22 44 49 86 54
86 161 280 262 477 36 72 98 191 136 265 38 74 81 155 96 180 14 25 37 75 51
110 13 36 41 99 63 141 80 157 172 367 208 474 13 39 39 104 58 145 19 41 51
120 72 175 20 55 57 151 82 213 71 180 183 489 210 582 13 47 35 117 49 155
13 39 29 100 35 135 5 36 21 102 35 148 16 53 30 137 39 240 8 86 21 204 30
262 48 347 43 1100 -10 1380 -8 41 -17 112 -20 158 -3 46 -19 160 -36 255 -16
95 -36 211 -44 259 -8 48 -25 122 -38 165 -14 43 -28 100 -32 127 -4 26 -19
78 -32 115 -14 36 -38 102 -53 146 -45 127 -77 199 -161 366 -72 140 -90 166
-185 272 -126 140 -183 187 -289 239 -134 64 -278 83 -393 52z m-6899 -19105
c85 -23 156 -123 193 -269 27 -107 25 -317 -5 -460 -55 -262 -202 -613 -347
-827 -37 -54 -105 -145 -153 -203 -93 -114 -332 -360 -349 -360 -14 0 -27 46
-54 195 -20 106 -22 155 -23 415 0 325 4 363 70 615 52 200 109 356 190 521
60 122 87 164 139 220 76 83 128 121 199 145 61 21 88 23 140 8z"/>
<path d="M9811 17795 c-96 -27 -152 -66 -301 -210 -342 -331 -5903 -5905
-5942 -5957 -24 -32 -58 -78 -76 -102 -67 -89 -66 -242 1 -325 18 -22 48 -62
67 -88 50 -68 6075 -6092 6135 -6133 60 -41 195 -90 251 -90 85 0 218 55 314
131 29 23 337 326 683 673 646 647 693 699 731 811 43 126 24 277 -50 393 -46
71 -91 117 -2408 2435 -1055 1055 -1926 1933 -1937 1950 -23 39 -25 116 -3
160 13 27 1778 1800 3722 3740 288 287 547 551 576 587 102 125 140 243 118
371 -19 110 -54 170 -172 294 -225 237 -1268 1273 -1310 1301 -77 52 -126 67
-240 70 -73 3 -122 -1 -159 -11z"/>
<path d="M29765 17789 c-76 -27 -145 -73 -222 -151 -35 -35 -332 -333 -661
-663 -329 -330 -615 -624 -635 -652 -52 -78 -72 -143 -72 -243 0 -99 19 -166
72 -249 37 -60 80 -102 2738 -2761 1133 -1134 1599 -1606 1610 -1632 19 -48
19 -101 -1 -143 -9 -19 -958 -977 -2156 -2177 -1533 -1535 -2152 -2161 -2183
-2208 -61 -94 -80 -157 -79 -265 0 -105 21 -172 80 -261 58 -87 1334 -1360
1406 -1403 84 -49 174 -83 237 -88 69 -6 190 31 267 81 71 47 6109 6086 6157
6158 21 32 42 60 47 63 6 4 19 24 30 45 15 30 20 59 20 125 0 84 -20 151 -50
170 -6 4 -21 24 -34 44 -13 21 -43 60 -66 87 -83 97 -5996 6008 -6053 6050
-119 89 -315 120 -452 73z"/>
</g>
</svg>
